<svg width="24" height="24" viewBox="0 0 24 24" fill="none" xmlns="http://www.w3.org/2000/svg">
<path fill-rule="evenodd" clip-rule="evenodd" d="M20.73 7.1198L20.5901 6.8698C20.4095 6.56749 20.1548 6.31623 19.8501 6.1398L13.1401 2.26981C12.8363 2.09356 12.4914 2.00043 12.1401 1.99981H11.8501C11.4988 2.00043 11.1539 2.09356 10.8501 2.26981L4.14009 6.1498C3.83706 6.32506 3.58535 6.57677 3.41009 6.8798L3.27009 7.1298C3.09385 7.43364 3.00072 7.77854 3.0001 8.1298V15.8798C3.00072 16.2311 3.09385 16.576 3.27009 16.8798L3.41009 17.1298C3.58988 17.4293 3.84058 17.68 4.14009 17.8598L10.8601 21.7298C11.1624 21.9097 11.5083 22.0031 11.8601 21.9998H12.1401C12.4914 21.9992 12.8363 21.9061 13.1401 21.7298L19.8501 17.8498C20.1561 17.6785 20.4088 17.4258 20.58 17.1198L20.73 16.8698C20.9041 16.5651 20.9972 16.2208 21 15.8698V8.1198C20.9994 7.76854 20.9064 7.42364 20.73 7.1198ZM11.8501 3.9998H12.1401L18.0001 7.3798L12.0001 10.8398L6.00009 7.3798L11.8501 3.9998ZM13.0001 19.4998L18.8501 16.1198L19.0001 15.8698V9.10979L13.0001 12.5798V19.4998Z" fill="black"/>
</svg>
