<svg width="24" height="24" viewBox="0 0 24 24" fill="none" xmlns="http://www.w3.org/2000/svg">
<path fill-rule="evenodd" clip-rule="evenodd" d="M16.0001 3.2426H8.00008C5.23867 3.2426 3.0001 5.48118 3.0001 8.24259V16.2426C3.0001 19.004 5.23867 21.2426 8.00008 21.2426H16.0001C18.7615 21.2426 21.0001 19.004 21.0001 16.2426V8.24259C21.0001 5.48118 18.7615 3.2426 16.0001 3.2426ZM19.2501 16.2426C19.2446 18.0352 17.7927 19.4871 16.0001 19.4926H8.00008C6.20744 19.4871 4.75558 18.0352 4.75009 16.2426V8.24259C4.75558 6.44995 6.20744 4.99809 8.00008 4.9926H16.0001C17.7927 4.99809 19.2446 6.44995 19.2501 8.24259V16.2426ZM16.7501 8.49259C17.3024 8.49259 17.7501 8.04487 17.7501 7.4926C17.7501 6.94032 17.3024 6.4926 16.7501 6.4926C16.1978 6.4926 15.7501 6.94032 15.7501 7.4926C15.7501 8.04487 16.1978 8.49259 16.7501 8.49259ZM12.0001 7.74259C9.5148 7.74259 7.50009 9.75731 7.50009 12.2426C7.50009 14.7279 9.5148 16.7426 12.0001 16.7426C14.4854 16.7426 16.5001 14.7279 16.5001 12.2426C16.5028 11.0483 16.0295 9.90216 15.185 9.05767C14.3405 8.21318 13.1944 7.73993 12.0001 7.74259ZM9.25008 12.2426C9.25008 13.7614 10.4813 14.9926 12.0001 14.9926C13.5189 14.9926 14.7501 13.7614 14.7501 12.2426C14.7501 10.7238 13.5189 9.49259 12.0001 9.49259C10.4813 9.49259 9.25008 10.7238 9.25008 12.2426Z" fill="black"/>
</svg>
