<svg width="17" height="18" viewBox="0 0 17 18" fill="none" xmlns="http://www.w3.org/2000/svg">
<path d="M14.0402 5.74801C15.6749 5.74801 17 4.46128 17 2.87401C17 1.28673 15.6749 0 14.0402 0C12.4056 0 11.0805 1.28673 11.0805 2.87401C11.0805 4.46128 12.4056 5.74801 14.0402 5.74801Z" fill="#C5C5C5"/>
<path d="M2.95978 5.74801C4.59442 5.74801 5.91955 4.46128 5.91955 2.87401C5.91955 1.28673 4.59442 0 2.95978 0C1.32513 0 0 1.28673 0 2.87401C0 4.46128 1.32513 5.74801 2.95978 5.74801Z" fill="#C5C5C5"/>
<path d="M14.0402 17.6907C15.6749 17.6907 17 16.4039 17 14.8167C17 13.2294 15.6749 11.9427 14.0402 11.9427C12.4056 11.9427 11.0805 13.2294 11.0805 14.8167C11.0805 16.4039 12.4056 17.6907 14.0402 17.6907Z" fill="#C5C5C5"/>
<path d="M2.95978 17.6907C4.59442 17.6907 5.91955 16.4039 5.91955 14.8167C5.91955 13.2294 4.59442 11.9427 2.95978 11.9427C1.32513 11.9427 0 13.2294 0 14.8167C0 16.4039 1.32513 17.6907 2.95978 17.6907Z" fill="#C5C5C5"/>
</svg>
