<svg width="24" height="24" viewBox="0 0 24 24" fill="none" xmlns="http://www.w3.org/2000/svg">
<path fill-rule="evenodd" clip-rule="evenodd" d="M4.50009 3.2426C3.67166 3.2426 3.0001 3.91417 3.0001 4.7426V19.7426C3.0001 20.571 3.67166 21.2426 4.50009 21.2426H19.5001C20.3285 21.2426 21.0001 20.571 21.0001 19.7426V4.7426C21.0001 3.91417 20.3285 3.2426 19.5001 3.2426H4.50009ZM8.52084 7.24532C8.52647 8.20156 7.81069 8.79078 6.96132 8.78656C6.16116 8.78234 5.46366 8.14531 5.46788 7.24673C5.4721 6.40157 6.14007 5.72235 7.00773 5.74204C7.88803 5.76173 8.52647 6.4072 8.52084 7.24532ZM12.2798 10.0043H9.75979H9.75838V18.5642H12.4218V18.3645C12.4218 17.9846 12.4215 17.6046 12.4212 17.2245C12.4204 16.2107 12.4195 15.1958 12.4247 14.1823C12.4261 13.9362 12.4373 13.6803 12.5006 13.4454C12.7382 12.5679 13.5272 12.0012 14.4075 12.1405C14.9728 12.229 15.3468 12.5567 15.5043 13.0897C15.6014 13.4229 15.645 13.7815 15.6492 14.1289C15.6606 15.1765 15.659 16.2241 15.6574 17.2718C15.6568 17.6416 15.6562 18.0116 15.6562 18.3814V18.5628H18.3281V18.3575C18.3281 17.9055 18.3279 17.4536 18.3276 17.0017C18.3271 15.8722 18.3265 14.7427 18.3295 13.6128C18.3309 13.1023 18.2761 12.5989 18.1509 12.1053C17.9639 11.3712 17.5772 10.7637 16.9486 10.325C16.5028 10.0128 16.0134 9.81169 15.4664 9.78919C15.4041 9.7866 15.3413 9.78321 15.2782 9.7798C14.9985 9.76468 14.7142 9.74932 14.4468 9.80325C13.6818 9.95653 13.0097 10.3067 12.502 10.924C12.443 10.9948 12.3853 11.0667 12.2992 11.174L12.2798 11.1983V10.0043ZM5.68173 18.567H8.3325V10.0099H5.68173V18.567Z" fill="black"/>
</svg>
