<svg width="24" height="24" viewBox="0 0 24 24" fill="none" xmlns="http://www.w3.org/2000/svg">
<path d="M21.5928 7.20291C21.4789 6.78031 21.2563 6.39491 20.9472 6.08508C20.638 5.77524 20.2531 5.55177 19.8308 5.43691C18.2648 5.00691 11.9998 4.99991 11.9998 4.99991C11.9998 4.99991 5.73582 4.99291 4.16883 5.40391C3.74675 5.52406 3.36265 5.75069 3.05339 6.06204C2.74414 6.3734 2.52011 6.75903 2.40283 7.18191C1.98983 8.7479 1.98583 11.9959 1.98583 11.9959C1.98583 11.9959 1.98183 15.2599 2.39183 16.8099C2.62183 17.6669 3.29683 18.3439 4.15483 18.5749C5.73682 19.0049 11.9848 19.0119 11.9848 19.0119C11.9848 19.0119 18.2498 19.0189 19.8158 18.6089C20.2383 18.4942 20.6235 18.2713 20.9334 17.9621C21.2433 17.6529 21.4672 17.2681 21.5828 16.8459C21.9968 15.2809 21.9998 12.0339 21.9998 12.0339C21.9998 12.0339 22.0198 8.7689 21.5928 7.20291ZM9.99581 15.0049L10.0008 9.0049L15.2078 12.0099L9.99581 15.0049Z" fill="black"/>
</svg>
