<svg width="47" height="47" viewBox="0 0 47 47" fill="none" xmlns="http://www.w3.org/2000/svg">
<path fill-rule="evenodd" clip-rule="evenodd" d="M40.5963 13.9432L40.3222 13.4536C39.9685 12.8616 39.4697 12.3695 38.873 12.024L25.7326 4.44529C25.1377 4.10014 24.4623 3.91776 23.7743 3.91654H23.2064C22.5184 3.91776 21.843 4.10014 21.2481 4.44529L8.10768 12.0436C7.51425 12.3868 7.02132 12.8798 6.6781 13.4732L6.40394 13.9628C6.05878 14.5578 5.8764 15.2332 5.87519 15.9211V31.0981C5.8764 31.7861 6.05878 32.4615 6.40394 33.0565L6.6781 33.5461C7.03019 34.1326 7.52114 34.6235 8.10768 34.9756L21.2676 42.5544C21.8596 42.9067 22.537 43.0896 23.226 43.0831H23.7743C24.4623 43.0819 25.1377 42.8996 25.7326 42.5544L38.873 34.9561C39.4723 34.6206 39.9671 34.1257 40.3026 33.5265L40.5963 33.0369C40.9373 32.4402 41.1194 31.7659 41.1251 31.0786V15.9015C41.1239 15.2136 40.9416 14.5382 40.5963 13.9432ZM23.2064 7.8332H23.7743L35.2501 14.4524L23.5001 21.2282L11.7502 14.4524L23.2064 7.8332ZM25.4585 38.1873L36.9147 31.5681L37.2084 31.0786V17.8403L25.4585 24.6357V38.1873Z" fill="black"/>
</svg>
