<svg width="61" height="26" viewBox="0 0 61 26" fill="none" xmlns="http://www.w3.org/2000/svg">
<g clip-path="url(#clip0_0_81)">
<path d="M0.541962 20.2227H12.7563V16.7984H4.90998V0.94415H0.541962V20.2227Z" fill="black"/>
<path d="M20.7882 17.5525C18.5772 17.5525 17.3369 15.9347 17.3369 13.2384V13.0227C17.3369 10.3264 18.6311 8.76254 20.7882 8.76254C22.9722 8.76254 24.2395 10.3803 24.2395 13.0766V13.2654C24.2395 15.9347 22.9722 17.5525 20.7882 17.5525ZM20.7612 20.5184C24.9944 20.5184 28.203 17.6873 28.203 13.2384V13.0227C28.203 8.62772 25.0214 5.7966 20.7882 5.7966C16.555 5.7966 13.3464 8.68165 13.3464 13.1036V13.3193C13.3464 17.7143 16.555 20.5184 20.7612 20.5184Z" fill="black"/>
<path d="M36.2706 25.4257C40.9083 25.4257 43.6855 23.2956 43.7124 19.1163V6.12016H39.8298V8.22328C39.0209 6.79423 37.6458 5.7966 35.3539 5.7966C31.8487 5.7966 29.1524 8.62772 29.1524 12.6722V12.8609C29.1524 17.0402 31.8757 19.6017 35.3 19.6017C37.3761 19.6017 39.0478 18.3614 39.8298 16.9863V19.1163C39.8298 21.3273 38.6434 22.5676 36.2706 22.5676C34.2754 22.5676 33.3856 21.7587 33.1429 20.5184H29.2602C29.6377 23.4304 31.7139 25.4257 36.2706 25.4257ZM36.4594 16.6627C34.518 16.6627 33.1429 15.2067 33.1429 12.8609V12.6452C33.1429 10.3264 34.3563 8.76254 36.5403 8.76254C38.6704 8.76254 39.9376 10.2185 39.9376 12.6182V12.807C39.9376 15.2067 38.5086 16.6627 36.4594 16.6627Z" fill="black"/>
<path d="M52.927 17.5525C50.716 17.5525 49.4757 15.9347 49.4757 13.2384V13.0227C49.4757 10.3264 50.77 8.76254 52.927 8.76254C55.111 8.76254 56.3783 10.3803 56.3783 13.0766V13.2654C56.3783 15.9347 55.111 17.5525 52.927 17.5525ZM52.9 20.5184C57.1332 20.5184 60.3418 17.6873 60.3418 13.2384V13.0227C60.3418 8.62772 57.1602 5.7966 52.927 5.7966C48.6938 5.7966 45.4852 8.68165 45.4852 13.1036V13.3193C45.4852 17.7143 48.6938 20.5184 52.9 20.5184Z" fill="black"/>
</g>
<defs>
<clipPath id="clip0_0_81">
<rect width="60.5063" height="25.9312" fill="white" transform="scale(1.00266)"/>
</clipPath>
</defs>
</svg>
