<svg width="1408" height="59" viewBox="0 0 1408 59" fill="none" xmlns="http://www.w3.org/2000/svg">
<g filter="url(#filter0_d_0_20)">
<path d="M97.7217 35.581H101.716V28.7342H103.452L107.694 35.581H111.961L107.273 28.0396C109.356 27.4194 110.919 26.0053 110.919 23.3262V23.2269C110.919 19.5555 108.265 17.8437 104.072 17.8437H97.7217V35.581ZM101.716 26.0053V20.9199H103.973C105.908 20.9199 107 21.5401 107 23.351V23.4502C107 25.1619 105.983 26.0053 103.973 26.0053H101.716Z" fill="black"/>
<path d="M118.817 35.8539C122.365 35.8539 124.598 34.2911 125.019 31.4878H121.621C121.397 32.5793 120.579 33.2988 118.917 33.2988C116.957 33.2988 115.791 32.0584 115.692 29.9002H125.044V28.9079C125.044 24.2688 122.067 22.3091 118.718 22.3091C114.947 22.3091 112.045 24.9635 112.045 29.0567V29.2551C112.045 33.398 114.898 35.8539 118.817 35.8539ZM115.741 27.6923C116.014 25.8565 117.106 24.7898 118.718 24.7898C120.43 24.7898 121.422 25.7325 121.546 27.6923H115.741Z" fill="black"/>
<path d="M126.753 35.581H130.326V16.7274H126.753V35.581Z" fill="black"/>
<path d="M137.179 35.8539C139.313 35.8539 140.627 34.8616 141.297 33.5469V35.581H144.869V22.6067H141.297V30.2226C141.297 32.1329 140.106 33.0755 138.594 33.0755C137.056 33.0755 136.336 32.232 136.336 30.4707V22.6067H132.764V30.9669C132.764 34.3655 134.649 35.8539 137.179 35.8539Z" fill="black"/>
<path d="M147.308 35.581H150.906V27.9156C150.906 26.1542 152.022 25.2611 153.411 25.2611C154.676 25.2611 155.445 26.0053 155.445 27.6675V35.581H159.018V27.9156C159.018 26.1542 160.134 25.2611 161.523 25.2611C162.813 25.2611 163.557 26.0053 163.557 27.6675V35.581H167.13V27.2706C167.13 23.8223 165.269 22.3091 162.862 22.3091C161.225 22.3091 159.539 23.0036 158.497 24.5665C157.877 23.0285 156.587 22.3091 154.875 22.3091C152.939 22.3091 151.55 23.3758 150.906 24.5913V22.6067H147.308V35.581Z" fill="black"/>
<path d="M175.436 35.8539C178.984 35.8539 181.216 34.2911 181.637 31.4878H178.239C178.015 32.5793 177.197 33.2988 175.535 33.2988C173.575 33.2988 172.409 32.0584 172.31 29.9002H181.663V28.9079C181.663 24.2688 178.685 22.3091 175.336 22.3091C171.566 22.3091 168.663 24.9635 168.663 29.0567V29.2551C168.663 33.398 171.516 35.8539 175.436 35.8539ZM172.36 27.6923C172.633 25.8565 173.725 24.7898 175.336 24.7898C177.048 24.7898 178.041 25.7325 178.165 27.6923H172.36Z" fill="black"/>
<path fill-rule="evenodd" clip-rule="evenodd" d="M83.9767 18.9048L83.7356 18.4742C83.4245 17.9533 82.9858 17.5204 82.4608 17.2166L70.9012 10.5495C70.3777 10.2459 69.7836 10.0855 69.1784 10.0844H68.6788C68.0737 10.0855 67.4796 10.2459 66.9561 10.5495L55.3965 17.2338C54.8745 17.5356 54.4409 17.9694 54.1389 18.4914L53.8977 18.9221C53.5941 19.4455 53.4337 20.0397 53.4326 20.6447V33.996C53.4337 34.6012 53.5941 35.1953 53.8977 35.7188L54.1389 36.1495C54.4487 36.6654 54.8805 37.0973 55.3965 37.4071L66.9733 44.074C67.4942 44.3839 68.0901 44.5449 68.6961 44.5392H69.1784C69.7836 44.5381 70.3777 44.3776 70.9012 44.074L82.4608 37.3898C82.988 37.0947 83.4233 36.6595 83.7183 36.1322L83.9767 35.7015C84.2768 35.1766 84.4369 34.5834 84.4419 33.9788V20.6275C84.4409 20.0224 84.2804 19.4282 83.9767 18.9048ZM68.6788 13.5298H69.1784L79.2737 19.3527L68.9372 25.3133L58.6008 19.3527L68.6788 13.5298ZM70.66 40.2325L80.738 34.4096L80.9964 33.9789V22.3332L70.66 28.311V40.2325Z" fill="black"/>
</g>
<g filter="url(#filter1_d_0_20)">
<path d="M332.569 23.9658C332.569 21.9997 330.663 19.9139 327.357 19.9139C323.644 19.9139 319.571 22.6324 318.941 28.0646C318.305 33.5565 321.724 35.9832 325.159 35.9832C328.594 35.9832 330.402 34.645 332.238 32.8512C330.652 30.8545 328.608 31.7837 328.221 31.9782C327.793 32.1926 327.232 32.4891 326.092 32.4891C324.761 32.4891 323.411 31.8868 323.411 29.4156C331.92 28.6 332.569 25.9331 332.569 23.9658ZM328.352 24.2951C328.297 24.9009 328.049 25.9496 323.743 26.5261C324.651 23.3014 326.383 23.0624 327.183 23.0624C327.933 23.0624 328.411 23.6436 328.352 24.2951ZM313.94 24.8188C313.94 24.8188 312.11 30.5581 311.968 31.0397C311.919 30.5581 310.579 20.2491 310.579 20.2491C307.462 20.2491 305.795 22.4637 304.916 24.8165C304.916 24.8165 302.69 30.5721 302.509 31.0537C302.499 30.6026 302.167 24.8763 302.167 24.8763C301.979 21.9984 299.352 20.2561 297.223 20.2561L299.783 35.8743C303.053 35.8637 304.804 33.6526 305.727 31.3044C305.727 31.3044 307.685 26.2261 307.766 25.9953C307.786 26.2156 309.174 35.8743 309.174 35.8743C312.447 35.8743 314.213 33.8038 315.163 31.54L319.755 20.2561C316.521 20.2561 314.819 22.4648 313.94 24.8188ZM344.589 19.8928C342.577 19.8928 341.027 20.9861 339.722 22.6019L339.724 22.5902L340.884 13.2057C338.205 13.2057 336.017 15.5375 335.601 18.9965L333.563 35.7524C335.109 35.7524 336.745 35.3036 337.629 34.1682C338.42 35.184 339.595 35.9937 341.335 35.9937C345.852 35.9937 348.957 30.7432 348.957 25.8136C348.957 21.3154 346.768 19.8928 344.589 19.8928ZM344.174 27.9427C343.706 30.6987 342.174 32.557 340.691 32.557C339.196 32.557 338.564 31.8962 338.564 31.8962C338.843 29.4871 339.028 28.0095 339.573 26.737C340.117 25.4645 341.402 23.4339 342.747 23.4339C344.055 23.4339 344.643 25.188 344.174 27.9427ZM360.281 20.2573H357.119L357.134 20.0921C357.349 18.0274 357.844 16.9436 359.444 16.7772C360.538 16.6647 361.032 16.0964 361.147 15.4824C361.237 15.0008 361.543 13.2983 361.543 13.2983C355.199 13.262 353.211 16.0003 352.703 20.1624L352.692 20.2561L352.63 20.2585C351.6 20.2585 350.469 21.4244 350.271 22.9054L350.202 23.4502H352.311L350.54 38.1076L350.004 40.7416L350.222 40.7487C353.183 40.6362 355.088 38.3009 355.509 34.9005L356.891 23.4502H357.882C358.853 23.4502 359.993 22.4777 360.204 20.8525L360.281 20.2573ZM376.693 19.9855C373.048 19.9855 369.614 22.6675 368.558 26.887C367.503 31.1053 369.107 36.0863 374.462 36.0863C379.82 36.0863 382.898 30.8943 382.898 26.5835C382.898 22.2703 379.983 19.9855 376.693 19.9855ZM378.17 27.8173C377.981 29.7308 377.138 32.6215 374.832 32.6215C372.516 32.6215 372.845 29.2293 373.069 27.6193C373.31 25.8933 374.279 23.4502 376.343 23.4502C378.207 23.4502 378.383 25.6566 378.17 27.8173ZM400.894 24.8188C400.894 24.8188 399.063 30.5581 398.923 31.0397C398.872 30.5581 397.533 20.2491 397.533 20.2491C394.417 20.2491 392.75 22.4637 391.87 24.8165C391.87 24.8165 389.645 30.5721 389.464 31.0537C389.454 30.6026 389.122 24.8763 389.122 24.8763C388.933 21.9984 386.305 20.2561 384.177 20.2561L386.737 35.8743C390.007 35.8637 391.759 33.6526 392.682 31.3044C392.682 31.3044 394.64 26.2261 394.72 25.9953C394.741 26.2156 396.128 35.8743 396.128 35.8743C399.401 35.8743 401.167 33.8038 402.117 31.54L406.71 20.2561C403.475 20.2561 401.772 22.4648 400.894 24.8188ZM363.257 13.2983L360.602 34.713L360.595 34.7095L360.056 37.3577L360.273 37.3646C363.132 37.3295 365.16 34.8209 365.542 31.6571L367.076 19.3656C367.541 15.6219 365.309 13.2983 363.257 13.2983Z" fill="black"/>
</g>
<g filter="url(#filter2_d_0_20)">
<path d="M567.055 35.581H571.049V28.7342H572.786L577.028 35.581H581.295L576.606 28.0396C578.69 27.4194 580.253 26.0053 580.253 23.3262V23.2269C580.253 19.5555 577.598 17.8437 573.406 17.8437H567.055V35.581ZM571.049 26.0053V20.9199H573.307C575.242 20.9199 576.333 21.5401 576.333 23.351V23.4502C576.333 25.1619 575.316 26.0053 573.307 26.0053H571.049Z" fill="black"/>
<path d="M588.15 35.8539C591.698 35.8539 593.93 34.2911 594.352 31.4878H590.954C590.73 32.5793 589.912 33.2988 588.25 33.2988C586.29 33.2988 585.124 32.0584 585.025 29.9002H594.377V28.9079C594.377 24.2688 591.4 22.3091 588.051 22.3091C584.28 22.3091 581.378 24.9635 581.378 29.0567V29.2551C581.378 33.398 584.231 35.8539 588.15 35.8539ZM585.074 27.6923C585.347 25.8565 586.439 24.7898 588.051 24.7898C589.763 24.7898 590.755 25.7325 590.879 27.6923H585.074Z" fill="black"/>
<path d="M596.086 35.581H599.659V16.7274H596.086V35.581Z" fill="black"/>
<path d="M606.512 35.8539C608.646 35.8539 609.96 34.8616 610.63 33.5469V35.581H614.202V22.6067H610.63V30.2226C610.63 32.1329 609.439 33.0755 607.927 33.0755C606.389 33.0755 605.668 32.232 605.668 30.4707V22.6067H602.097V30.9669C602.097 34.3655 603.982 35.8539 606.512 35.8539Z" fill="black"/>
<path d="M616.641 35.581H620.239V27.9156C620.239 26.1542 621.355 25.2611 622.744 25.2611C624.009 25.2611 624.778 26.0053 624.778 27.6675V35.581H628.351V27.9156C628.351 26.1542 629.467 25.2611 630.856 25.2611C632.146 25.2611 632.89 26.0053 632.89 27.6675V35.581H636.463V27.2706C636.463 23.8223 634.602 22.3091 632.195 22.3091C630.558 22.3091 628.872 23.0036 627.83 24.5665C627.209 23.0285 625.919 22.3091 624.208 22.3091C622.272 22.3091 620.883 23.3758 620.239 24.5913V22.6067H616.641V35.581Z" fill="black"/>
<path d="M644.769 35.8539C648.317 35.8539 650.55 34.2911 650.971 31.4878H647.572C647.349 32.5793 646.53 33.2988 644.868 33.2988C642.908 33.2988 641.743 32.0584 641.644 29.9002H650.996V28.9079C650.996 24.2688 648.019 22.3091 644.67 22.3091C640.899 22.3091 637.996 24.9635 637.996 29.0567V29.2551C637.996 33.398 640.85 35.8539 644.769 35.8539ZM641.693 27.6923C641.966 25.8565 643.058 24.7898 644.67 24.7898C646.382 24.7898 647.374 25.7325 647.498 27.6923H641.693Z" fill="black"/>
<path fill-rule="evenodd" clip-rule="evenodd" d="M553.31 18.9048L553.068 18.4742C552.757 17.9533 552.319 17.5204 551.794 17.2166L540.234 10.5495C539.711 10.2459 539.117 10.0855 538.511 10.0844H538.012C537.407 10.0855 536.812 10.2459 536.289 10.5495L524.729 17.2338C524.207 17.5356 523.774 17.9694 523.472 18.4914L523.231 18.9221C522.927 19.4455 522.767 20.0397 522.766 20.6447V33.996C522.767 34.6012 522.927 35.1953 523.231 35.7188L523.472 36.1495C523.782 36.6654 524.213 37.0973 524.729 37.4071L536.306 44.074C536.827 44.3839 537.423 44.5449 538.029 44.5392H538.511C539.117 44.5381 539.711 44.3776 540.234 44.074L551.794 37.3898C552.321 37.0947 552.756 36.6595 553.051 36.1322L553.31 35.7015C553.61 35.1766 553.77 34.5834 553.775 33.9788V20.6275C553.774 20.0224 553.613 19.4282 553.31 18.9048ZM538.012 13.5298H538.511L548.607 19.3527L538.27 25.3133L527.934 19.3527L538.012 13.5298ZM539.993 40.2325L550.071 34.4096L550.329 33.9789V22.3332L539.993 28.311V40.2325Z" fill="black"/>
</g>
<g filter="url(#filter3_d_0_20)">
<path d="M801.903 23.9658C801.903 21.9997 799.996 19.9139 796.691 19.9139C792.978 19.9139 788.905 22.6324 788.274 28.0646C787.638 33.5565 791.057 35.9832 794.493 35.9832C797.927 35.9832 799.735 34.645 801.571 32.8512C799.986 30.8545 797.941 31.7837 797.554 31.9782C797.127 32.1926 796.565 32.4891 795.425 32.4891C794.094 32.4891 792.744 31.8868 792.744 29.4156C801.254 28.6 801.903 25.9331 801.903 23.9658ZM797.686 24.2951C797.631 24.9009 797.382 25.9496 793.076 26.5261C793.984 23.3014 795.716 23.0624 796.516 23.0624C797.266 23.0624 797.744 23.6436 797.686 24.2951ZM783.273 24.8188C783.273 24.8188 781.443 30.5581 781.301 31.0397C781.252 30.5581 779.913 20.2491 779.913 20.2491C776.796 20.2491 775.128 22.4637 774.25 24.8165C774.25 24.8165 772.023 30.5721 771.843 31.0537C771.832 30.6026 771.501 24.8763 771.501 24.8763C771.312 21.9984 768.685 20.2561 766.556 20.2561L769.116 35.8743C772.387 35.8637 774.137 33.6526 775.061 31.3044C775.061 31.3044 777.018 26.2261 777.099 25.9953C777.119 26.2156 778.508 35.8743 778.508 35.8743C781.78 35.8743 783.546 33.8038 784.497 31.54L789.089 20.2561C785.855 20.2561 784.152 22.4648 783.273 24.8188ZM813.922 19.8928C811.911 19.8928 810.36 20.9861 809.055 22.6019L809.057 22.5902L810.217 13.2057C807.539 13.2057 805.35 15.5375 804.934 18.9965L802.896 35.7524C804.442 35.7524 806.079 35.3036 806.962 34.1682C807.753 35.184 808.929 35.9937 810.669 35.9937C815.186 35.9937 818.291 30.7432 818.291 25.8136C818.291 21.3154 816.102 19.8928 813.922 19.8928ZM813.508 27.9427C813.039 30.6987 811.508 32.557 810.024 32.557C808.529 32.557 807.897 31.8962 807.897 31.8962C808.176 29.4871 808.361 28.0095 808.906 26.737C809.45 25.4645 810.735 23.4339 812.08 23.4339C813.388 23.4339 813.976 25.188 813.508 27.9427ZM829.614 20.2573H826.452L826.467 20.0921C826.683 18.0274 827.177 16.9436 828.778 16.7772C829.871 16.6647 830.366 16.0964 830.48 15.4824C830.571 15.0008 830.876 13.2983 830.876 13.2983C824.533 13.262 822.544 16.0003 822.037 20.1624L822.025 20.2561L821.963 20.2585C820.933 20.2585 819.802 21.4244 819.604 22.9054L819.535 23.4502H821.644L819.874 38.1076L819.337 40.7416L819.555 40.7487C822.516 40.6362 824.421 38.3009 824.842 34.9005L826.225 23.4502H827.216C828.186 23.4502 829.326 22.4777 829.537 20.8525L829.614 20.2573ZM846.026 19.9855C842.382 19.9855 838.947 22.6675 837.891 26.887C836.837 31.1053 838.44 36.0863 843.796 36.0863C849.154 36.0863 852.231 30.8943 852.231 26.5835C852.231 22.2703 849.316 19.9855 846.026 19.9855ZM847.503 27.8173C847.315 29.7308 846.471 32.6215 844.165 32.6215C841.85 32.6215 842.179 29.2293 842.403 27.6193C842.643 25.8933 843.613 23.4502 845.677 23.4502C847.541 23.4502 847.716 25.6566 847.503 27.8173ZM870.227 24.8188C870.227 24.8188 868.397 30.5581 868.256 31.0397C868.206 30.5581 866.867 20.2491 866.867 20.2491C863.75 20.2491 862.083 22.4637 861.204 24.8165C861.204 24.8165 858.979 30.5721 858.798 31.0537C858.787 30.6026 858.456 24.8763 858.456 24.8763C858.267 21.9984 855.638 20.2561 853.511 20.2561L856.07 35.8743C859.34 35.8637 861.092 33.6526 862.015 31.3044C862.015 31.3044 863.973 26.2261 864.054 25.9953C864.074 26.2156 865.461 35.8743 865.461 35.8743C868.734 35.8743 870.5 33.8038 871.45 31.54L876.044 20.2561C872.809 20.2561 871.106 22.4648 870.227 24.8188ZM832.591 13.2983L829.936 34.713L829.928 34.7095L829.389 37.3577L829.606 37.3646C832.465 37.3295 834.494 34.8209 834.876 31.6571L836.409 19.3656C836.874 15.6219 834.642 13.2983 832.591 13.2983Z" fill="black"/>
</g>
<g filter="url(#filter4_d_0_20)">
<path d="M1036.39 35.581H1040.38V28.7342H1042.12L1046.36 35.581H1050.63L1045.94 28.0396C1048.02 27.4194 1049.59 26.0053 1049.59 23.3262V23.2269C1049.59 19.5555 1046.93 17.8437 1042.74 17.8437H1036.39V35.581ZM1040.38 26.0053V20.9199H1042.64C1044.57 20.9199 1045.67 21.5401 1045.67 23.351V23.4502C1045.67 25.1619 1044.65 26.0053 1042.64 26.0053H1040.38Z" fill="black"/>
<path d="M1057.48 35.8539C1061.03 35.8539 1063.26 34.2911 1063.69 31.4878H1060.29C1060.06 32.5793 1059.24 33.2988 1057.58 33.2988C1055.62 33.2988 1054.46 32.0584 1054.36 29.9002H1063.71V28.9079C1063.71 24.2688 1060.73 22.3091 1057.38 22.3091C1053.61 22.3091 1050.71 24.9635 1050.71 29.0567V29.2551C1050.71 33.398 1053.56 35.8539 1057.48 35.8539ZM1054.41 27.6923C1054.68 25.8565 1055.77 24.7898 1057.38 24.7898C1059.1 24.7898 1060.09 25.7325 1060.21 27.6923H1054.41Z" fill="black"/>
<path d="M1065.42 35.581H1068.99V16.7274H1065.42V35.581Z" fill="black"/>
<path d="M1075.85 35.8539C1077.98 35.8539 1079.29 34.8616 1079.96 33.5469V35.581H1083.54V22.6067H1079.96V30.2226C1079.96 32.1329 1078.77 33.0755 1077.26 33.0755C1075.72 33.0755 1075 32.232 1075 30.4707V22.6067H1071.43V30.9669C1071.43 34.3655 1073.32 35.8539 1075.85 35.8539Z" fill="black"/>
<path d="M1085.97 35.581H1089.57V27.9156C1089.57 26.1542 1090.69 25.2611 1092.08 25.2611C1093.34 25.2611 1094.11 26.0053 1094.11 27.6675V35.581H1097.68V27.9156C1097.68 26.1542 1098.8 25.2611 1100.19 25.2611C1101.48 25.2611 1102.22 26.0053 1102.22 27.6675V35.581H1105.8V27.2706C1105.8 23.8223 1103.94 22.3091 1101.53 22.3091C1099.89 22.3091 1098.21 23.0036 1097.16 24.5665C1096.54 23.0285 1095.25 22.3091 1093.54 22.3091C1091.61 22.3091 1090.22 23.3758 1089.57 24.5913V22.6067H1085.97V35.581Z" fill="black"/>
<path d="M1114.1 35.8539C1117.65 35.8539 1119.88 34.2911 1120.3 31.4878H1116.91C1116.68 32.5793 1115.86 33.2988 1114.2 33.2988C1112.24 33.2988 1111.08 32.0584 1110.98 29.9002H1120.33V28.9079C1120.33 24.2688 1117.35 22.3091 1114 22.3091C1110.23 22.3091 1107.33 24.9635 1107.33 29.0567V29.2551C1107.33 33.398 1110.18 35.8539 1114.1 35.8539ZM1111.03 27.6923C1111.3 25.8565 1112.39 24.7898 1114 24.7898C1115.71 24.7898 1116.71 25.7325 1116.83 27.6923H1111.03Z" fill="black"/>
<path fill-rule="evenodd" clip-rule="evenodd" d="M1022.64 18.9048L1022.4 18.4742C1022.09 17.9533 1021.65 17.5204 1021.13 17.2166L1009.57 10.5495C1009.04 10.2459 1008.45 10.0855 1007.84 10.0844H1007.35C1006.74 10.0855 1006.15 10.2459 1005.62 10.5495L994.063 17.2338C993.541 17.5356 993.107 17.9694 992.805 18.4914L992.564 18.9221C992.26 19.4455 992.1 20.0397 992.099 20.6447V33.996C992.1 34.6012 992.26 35.1953 992.564 35.7188L992.805 36.1495C993.115 36.6654 993.547 37.0973 994.063 37.4071L1005.64 44.074C1006.16 44.3839 1006.76 44.5449 1007.36 44.5392H1007.84C1008.45 44.5381 1009.04 44.3776 1009.57 44.074L1021.13 37.3898C1021.65 37.0947 1022.09 36.6595 1022.38 36.1322L1022.64 35.7015C1022.94 35.1766 1023.1 34.5834 1023.11 33.9788V20.6275C1023.11 20.0224 1022.95 19.4282 1022.64 18.9048ZM1007.35 13.5298H1007.84L1017.94 19.3527L1007.6 25.3133L997.267 19.3527L1007.35 13.5298ZM1009.33 40.2325L1019.4 34.4096L1019.66 33.9789V22.3332L1009.33 28.311V40.2325Z" fill="black"/>
</g>
<g filter="url(#filter5_d_0_20)">
<path d="M1271.24 23.9658C1271.24 21.9997 1269.33 19.9139 1266.02 19.9139C1262.31 19.9139 1258.24 22.6324 1257.61 28.0646C1256.97 33.5565 1260.39 35.9832 1263.83 35.9832C1267.26 35.9832 1269.07 34.645 1270.9 32.8512C1269.32 30.8545 1267.27 31.7837 1266.89 31.9782C1266.46 32.1926 1265.9 32.4891 1264.76 32.4891C1263.43 32.4891 1262.08 31.8868 1262.08 29.4156C1270.59 28.6 1271.24 25.9331 1271.24 23.9658ZM1267.02 24.2951C1266.96 24.9009 1266.72 25.9496 1262.41 26.5261C1263.32 23.3014 1265.05 23.0624 1265.85 23.0624C1266.6 23.0624 1267.08 23.6436 1267.02 24.2951ZM1252.61 24.8188C1252.61 24.8188 1250.78 30.5581 1250.63 31.0397C1250.59 30.5581 1249.25 20.2491 1249.25 20.2491C1246.13 20.2491 1244.46 22.4637 1243.58 24.8165C1243.58 24.8165 1241.36 30.5721 1241.18 31.0537C1241.17 30.6026 1240.83 24.8763 1240.83 24.8763C1240.65 21.9984 1238.02 20.2561 1235.89 20.2561L1238.45 35.8743C1241.72 35.8637 1243.47 33.6526 1244.39 31.3044C1244.39 31.3044 1246.35 26.2261 1246.43 25.9953C1246.45 26.2156 1247.84 35.8743 1247.84 35.8743C1251.11 35.8743 1252.88 33.8038 1253.83 31.54L1258.42 20.2561C1255.19 20.2561 1253.49 22.4648 1252.61 24.8188ZM1283.26 19.8928C1281.24 19.8928 1279.69 20.9861 1278.39 22.6019L1278.39 22.5902L1279.55 13.2057C1276.87 13.2057 1274.68 15.5375 1274.27 18.9965L1272.23 35.7524C1273.78 35.7524 1275.41 35.3036 1276.3 34.1682C1277.09 35.184 1278.26 35.9937 1280 35.9937C1284.52 35.9937 1287.62 30.7432 1287.62 25.8136C1287.62 21.3154 1285.44 19.8928 1283.26 19.8928ZM1282.84 27.9427C1282.37 30.6987 1280.84 32.557 1279.36 32.557C1277.86 32.557 1277.23 31.8962 1277.23 31.8962C1277.51 29.4871 1277.69 28.0095 1278.24 26.737C1278.78 25.4645 1280.07 23.4339 1281.41 23.4339C1282.72 23.4339 1283.31 25.188 1282.84 27.9427ZM1298.95 20.2573H1295.79L1295.8 20.0921C1296.02 18.0274 1296.51 16.9436 1298.11 16.7772C1299.2 16.6647 1299.7 16.0964 1299.81 15.4824C1299.9 15.0008 1300.21 13.2983 1300.21 13.2983C1293.87 13.262 1291.88 16.0003 1291.37 20.1624L1291.36 20.2561L1291.3 20.2585C1290.27 20.2585 1289.14 21.4244 1288.94 22.9054L1288.87 23.4502H1290.98L1289.21 38.1076L1288.67 40.7416L1288.89 40.7487C1291.85 40.6362 1293.75 38.3009 1294.18 34.9005L1295.56 23.4502H1296.55C1297.52 23.4502 1298.66 22.4777 1298.87 20.8525L1298.95 20.2573ZM1315.36 19.9855C1311.72 19.9855 1308.28 22.6675 1307.22 26.887C1306.17 31.1053 1307.77 36.0863 1313.13 36.0863C1318.49 36.0863 1321.56 30.8943 1321.56 26.5835C1321.56 22.2703 1318.65 19.9855 1315.36 19.9855ZM1316.84 27.8173C1316.65 29.7308 1315.8 32.6215 1313.5 32.6215C1311.18 32.6215 1311.51 29.2293 1311.74 27.6193C1311.98 25.8933 1312.95 23.4502 1315.01 23.4502C1316.87 23.4502 1317.05 25.6566 1316.84 27.8173ZM1339.56 24.8188C1339.56 24.8188 1337.73 30.5581 1337.59 31.0397C1337.54 30.5581 1336.2 20.2491 1336.2 20.2491C1333.08 20.2491 1331.42 22.4637 1330.54 24.8165C1330.54 24.8165 1328.31 30.5721 1328.13 31.0537C1328.12 30.6026 1327.79 24.8763 1327.79 24.8763C1327.6 21.9984 1324.97 20.2561 1322.84 20.2561L1325.4 35.8743C1328.67 35.8637 1330.43 33.6526 1331.35 31.3044C1331.35 31.3044 1333.31 26.2261 1333.39 25.9953C1333.41 26.2156 1334.79 35.8743 1334.79 35.8743C1338.07 35.8743 1339.83 33.8038 1340.78 31.54L1345.38 20.2561C1342.14 20.2561 1340.44 22.4648 1339.56 24.8188ZM1301.92 13.2983L1299.27 34.713L1299.26 34.7095L1298.72 37.3577L1298.94 37.3646C1301.8 37.3295 1303.83 34.8209 1304.21 31.6571L1305.74 19.3656C1306.21 15.6219 1303.98 13.2983 1301.92 13.2983Z" fill="black"/>
</g>
<defs>
<filter id="filter0_d_0_20" x="0" y="-6" width="254.666" height="73.7833" filterUnits="userSpaceOnUse" color-interpolation-filters="sRGB">
<feFlood flood-opacity="0" result="BackgroundImageFix"/>
<feColorMatrix in="SourceAlpha" type="matrix" values="0 0 0 0 0 0 0 0 0 0 0 0 0 0 0 0 0 0 127 0" result="hardAlpha"/>
<feOffset dx="10" dy="4"/>
<feGaussianBlur stdDeviation="5"/>
<feComposite in2="hardAlpha" operator="out"/>
<feColorMatrix type="matrix" values="0 0 0 0 0 0 0 0 0 0 0 0 0 0 0 0 0 0 0.25 0"/>
<feBlend mode="normal" in2="BackgroundImageFix" result="effect1_dropShadow_0_20"/>
<feBlend mode="normal" in="SourceGraphic" in2="effect1_dropShadow_0_20" result="shape"/>
</filter>
<filter id="filter1_d_0_20" x="234.666" y="-2.15833" width="254.666" height="66.1" filterUnits="userSpaceOnUse" color-interpolation-filters="sRGB">
<feFlood flood-opacity="0" result="BackgroundImageFix"/>
<feColorMatrix in="SourceAlpha" type="matrix" values="0 0 0 0 0 0 0 0 0 0 0 0 0 0 0 0 0 0 127 0" result="hardAlpha"/>
<feOffset dx="10" dy="4"/>
<feGaussianBlur stdDeviation="5"/>
<feComposite in2="hardAlpha" operator="out"/>
<feColorMatrix type="matrix" values="0 0 0 0 0 0 0 0 0 0 0 0 0 0 0 0 0 0 0.25 0"/>
<feBlend mode="normal" in2="BackgroundImageFix" result="effect1_dropShadow_0_20"/>
<feBlend mode="normal" in="SourceGraphic" in2="effect1_dropShadow_0_20" result="shape"/>
</filter>
<filter id="filter2_d_0_20" x="469.333" y="-6" width="254.666" height="73.7833" filterUnits="userSpaceOnUse" color-interpolation-filters="sRGB">
<feFlood flood-opacity="0" result="BackgroundImageFix"/>
<feColorMatrix in="SourceAlpha" type="matrix" values="0 0 0 0 0 0 0 0 0 0 0 0 0 0 0 0 0 0 127 0" result="hardAlpha"/>
<feOffset dx="10" dy="4"/>
<feGaussianBlur stdDeviation="5"/>
<feComposite in2="hardAlpha" operator="out"/>
<feColorMatrix type="matrix" values="0 0 0 0 0 0 0 0 0 0 0 0 0 0 0 0 0 0 0.25 0"/>
<feBlend mode="normal" in2="BackgroundImageFix" result="effect1_dropShadow_0_20"/>
<feBlend mode="normal" in="SourceGraphic" in2="effect1_dropShadow_0_20" result="shape"/>
</filter>
<filter id="filter3_d_0_20" x="704" y="-2.15833" width="254.667" height="66.1" filterUnits="userSpaceOnUse" color-interpolation-filters="sRGB">
<feFlood flood-opacity="0" result="BackgroundImageFix"/>
<feColorMatrix in="SourceAlpha" type="matrix" values="0 0 0 0 0 0 0 0 0 0 0 0 0 0 0 0 0 0 127 0" result="hardAlpha"/>
<feOffset dx="10" dy="4"/>
<feGaussianBlur stdDeviation="5"/>
<feComposite in2="hardAlpha" operator="out"/>
<feColorMatrix type="matrix" values="0 0 0 0 0 0 0 0 0 0 0 0 0 0 0 0 0 0 0.25 0"/>
<feBlend mode="normal" in2="BackgroundImageFix" result="effect1_dropShadow_0_20"/>
<feBlend mode="normal" in="SourceGraphic" in2="effect1_dropShadow_0_20" result="shape"/>
</filter>
<filter id="filter4_d_0_20" x="938.667" y="-6" width="254.667" height="73.7833" filterUnits="userSpaceOnUse" color-interpolation-filters="sRGB">
<feFlood flood-opacity="0" result="BackgroundImageFix"/>
<feColorMatrix in="SourceAlpha" type="matrix" values="0 0 0 0 0 0 0 0 0 0 0 0 0 0 0 0 0 0 127 0" result="hardAlpha"/>
<feOffset dx="10" dy="4"/>
<feGaussianBlur stdDeviation="5"/>
<feComposite in2="hardAlpha" operator="out"/>
<feColorMatrix type="matrix" values="0 0 0 0 0 0 0 0 0 0 0 0 0 0 0 0 0 0 0.25 0"/>
<feBlend mode="normal" in2="BackgroundImageFix" result="effect1_dropShadow_0_20"/>
<feBlend mode="normal" in="SourceGraphic" in2="effect1_dropShadow_0_20" result="shape"/>
</filter>
<filter id="filter5_d_0_20" x="1173.33" y="-2.15833" width="254.667" height="66.1" filterUnits="userSpaceOnUse" color-interpolation-filters="sRGB">
<feFlood flood-opacity="0" result="BackgroundImageFix"/>
<feColorMatrix in="SourceAlpha" type="matrix" values="0 0 0 0 0 0 0 0 0 0 0 0 0 0 0 0 0 0 127 0" result="hardAlpha"/>
<feOffset dx="10" dy="4"/>
<feGaussianBlur stdDeviation="5"/>
<feComposite in2="hardAlpha" operator="out"/>
<feColorMatrix type="matrix" values="0 0 0 0 0 0 0 0 0 0 0 0 0 0 0 0 0 0 0.25 0"/>
<feBlend mode="normal" in2="BackgroundImageFix" result="effect1_dropShadow_0_20"/>
<feBlend mode="normal" in="SourceGraphic" in2="effect1_dropShadow_0_20" result="shape"/>
</filter>
</defs>
</svg>
