<svg width="20" height="17" viewBox="0 0 20 17" fill="none" xmlns="http://www.w3.org/2000/svg">
<path d="M16.6665 3.06171H1.33332V0.765427C1.33332 0.562423 1.26308 0.367734 1.13806 0.224188C1.01304 0.080643 0.843471 0 0.666662 0C0.489852 0 0.320284 0.080643 0.19526 0.224188C0.0702374 0.367734 0 0.562423 0 0.765427V16.074C0 16.277 0.0702374 16.4716 0.19526 16.6151C0.320284 16.7588 0.489852 16.8394 0.666662 16.8394C0.843471 16.8394 1.01304 16.7588 1.13806 16.6151C1.26308 16.4716 1.33332 16.277 1.33332 16.074V13.0123H18.6665V16.074C18.6665 16.277 18.7367 16.4716 18.8618 16.6151C18.9868 16.7588 19.1563 16.8394 19.3332 16.8394C19.51 16.8394 19.6795 16.7588 19.8046 16.6151C19.9297 16.4716 19.9999 16.277 19.9999 16.074V6.88884C19.9989 5.87418 19.6473 4.90139 19.0225 4.18391C18.3975 3.46644 17.5503 3.06285 16.6665 3.06171ZM1.33332 4.59256H7.33328V11.4814H1.33332V4.59256Z" fill="#C5C5C5"/>
</svg>
