<svg width="19" height="19" viewBox="0 0 19 19" fill="none" xmlns="http://www.w3.org/2000/svg">
<path d="M18.7469 1.47417L15.9032 4.3175L17.8833 6.29734C18.004 6.41812 18.0862 6.57198 18.1196 6.73947C18.1529 6.90698 18.1358 7.0806 18.0704 7.23837C18.0051 7.39615 17.8944 7.531 17.7523 7.62589C17.6103 7.72078 17.4434 7.77143 17.2726 7.77145H12.0908C11.8618 7.77144 11.6421 7.68046 11.4801 7.51853C11.3182 7.3566 11.2272 7.13697 11.2272 6.90796V1.72703C11.2272 1.55626 11.2779 1.38932 11.3728 1.24732C11.4677 1.10533 11.6026 0.99466 11.7603 0.929304C11.9181 0.863947 12.0918 0.84684 12.2593 0.880145C12.4269 0.91345 12.5808 0.995672 12.7015 1.11641L14.6817 3.09626L17.5255 0.252926C17.6057 0.172739 17.7009 0.10913 17.8057 0.0657331C17.9105 0.022336 18.0227 0 18.1362 0C18.2496 0 18.3619 0.022336 18.4668 0.0657331C18.5715 0.10913 18.6667 0.172739 18.7469 0.252926C18.8271 0.333114 18.8907 0.42831 18.9342 0.53308C18.9776 0.637851 18.9998 0.750142 18.9998 0.863545C18.9998 0.976948 18.9776 1.08924 18.9342 1.19401C18.8907 1.29879 18.8271 1.39398 18.7469 1.47417ZM6.90906 11.2254H1.72731C1.5565 11.2254 1.38954 11.2761 1.24752 11.371C1.10551 11.4659 0.994819 11.6007 0.929452 11.7585C0.864085 11.9162 0.846975 12.0899 0.880286 12.2574C0.913596 12.4249 0.995831 12.5788 1.11659 12.6995L3.09675 14.6793L0.252967 17.5227C0.172766 17.6029 0.109148 17.6981 0.0657436 17.8028C0.0223395 17.9076 0 18.0199 0 18.1333C0 18.2467 0.0223395 18.359 0.0657436 18.4638C0.109148 18.5686 0.172766 18.6637 0.252967 18.7439C0.414938 18.9058 0.634619 18.9968 0.863683 18.9968C0.977104 18.9968 1.08941 18.9746 1.19421 18.9311C1.29899 18.8877 1.3942 18.8241 1.4744 18.7439L4.31819 15.9006L6.29835 17.8805C6.41914 18.0012 6.57303 18.0834 6.74055 18.1167C6.90808 18.15 7.08173 18.1329 7.23952 18.0675C7.39733 18.0022 7.5322 17.8915 7.62711 17.7495C7.72201 17.6075 7.77267 17.4406 7.7727 17.2699V12.0889C7.77268 11.8599 7.68169 11.6403 7.51973 11.4783C7.35777 11.3164 7.13811 11.2254 6.90906 11.2254Z" fill="#C5C5C5"/>
</svg>
