<svg width="20" height="24" viewBox="0 0 20 24" fill="none" xmlns="http://www.w3.org/2000/svg">
<path d="M17.9894 22.2857H12.4284C13.364 21.491 14.2464 20.641 15.0703 19.741C18.1568 16.3584 19.7884 12.7925 19.7884 9.42857C19.7884 6.92795 18.7459 4.52976 16.8904 2.76157C15.035 0.993364 12.5182 0 9.89418 0C7.27007 0 4.75345 0.993364 2.89794 2.76157C1.04242 4.52976 0 6.92795 0 9.42857C0 12.7925 1.6315 16.3584 4.71805 19.741C5.54196 20.641 6.42433 21.491 7.35995 22.2857H1.79894C1.56039 22.2857 1.3316 22.376 1.16292 22.5368C0.994237 22.6975 0.899471 22.9155 0.899471 23.1429C0.899471 23.3702 0.994237 23.5882 1.16292 23.7489C1.3316 23.9097 1.56039 24 1.79894 24H17.9894C18.228 24 18.4568 23.9097 18.6254 23.7489C18.7941 23.5882 18.8889 23.3702 18.8889 23.1429C18.8889 22.9155 18.7941 22.6975 18.6254 22.5368C18.4568 22.376 18.228 22.2857 17.9894 22.2857ZM9.8942 6C10.6058 6 11.3014 6.20108 11.8931 6.57782C12.4848 6.95456 12.9459 7.49002 13.2183 8.11651C13.4905 8.743 13.5617 9.43238 13.423 10.0975C13.2841 10.7625 12.9415 11.3734 12.4382 11.8529C11.9351 12.3325 11.294 12.659 10.5961 12.7913C9.8982 12.9235 9.17478 12.8557 8.51735 12.5961C7.85992 12.3367 7.29802 11.8973 6.90268 11.3334C6.50734 10.7696 6.29632 10.1067 6.29632 9.42857C6.29632 8.97832 6.38937 8.53248 6.57019 8.1165C6.751 7.70054 7.01602 7.32257 7.35011 7.00419C7.6842 6.68583 8.08083 6.43328 8.51735 6.26097C8.95387 6.08867 9.42173 6 9.8942 6Z" fill="black"/>
</svg>
